<svg width="103" height="91" viewBox="0 0 103 91" fill="none" xmlns="http://www.w3.org/2000/svg">
<path d="M12.0832 43.6606H92.0832V81.6606C92.0832 86.0789 88.5015 89.6606 84.0832 89.6606H20.0832C15.6649 89.6606 12.0832 86.0789 12.0832 81.6606V43.6606Z" fill="#EB6A69"/>
<path d="M51.5537 89.6606C50.4491 89.6606 49.5537 90.7652 49.5537 89.6606V48.0243C49.5537 46.9197 50.4491 46.0243 51.5537 46.0243H77.3406C78.4452 46.0243 79.3406 46.9197 79.3406 48.0243V52.5896C79.3406 53.6942 78.4452 54.5896 77.3406 54.5896H62.1006C60.996 54.5896 60.1006 55.485 60.1006 56.5896V61.5385C60.1006 62.643 60.996 63.5385 62.1006 63.5385H75.4443C76.5489 63.5385 77.4443 64.4339 77.4443 65.5385V70.1251C77.4443 71.2297 76.5489 72.1251 75.4443 72.1251H62.1006C60.996 72.1251 60.1006 73.0206 60.1006 74.1251V89.6606C60.1006 90.7652 59.2052 89.6606 58.1006 89.6606H51.5537Z" fill="white"/>
<path d="M40.9326 46.0243C42.0372 46.0243 42.9326 46.9197 42.9326 48.0243V89.6606C42.9326 90.7652 42.0372 89.6606 40.9326 89.6606H34.3857C33.2812 89.6606 32.3857 90.7652 32.3857 89.6606V48.0243C32.3857 46.9197 33.2812 46.0243 34.3857 46.0243H40.9326Z" fill="white"/>
<path d="M48.0094 1.05639C49.8166 -0.352126 52.3498 -0.35213 54.1569 1.05638L100.23 36.967C103.983 39.8921 101.915 45.9106 97.1566 45.9106H5.00981C0.251608 45.9106 -1.81683 39.8921 1.93607 36.967L48.0094 1.05639Z" fill="#EB6A69"/>
</svg>
