<svg width="160" height="22" viewBox="0 0 160 22" fill="none" xmlns="http://www.w3.org/2000/svg">
<path d="M149.981 21V14.4546H151.711V15.6094H151.788C151.924 15.2259 152.151 14.9233 152.47 14.7017C152.788 14.4801 153.168 14.3693 153.612 14.3693C154.061 14.3693 154.443 14.4815 154.758 14.706C155.073 14.9276 155.284 15.2287 155.389 15.6094H155.457C155.59 15.2344 155.832 14.9347 156.181 14.7102C156.534 14.483 156.95 14.3693 157.43 14.3693C158.041 14.3693 158.536 14.5639 158.917 14.9531C159.301 15.3395 159.492 15.8878 159.492 16.598V21H157.681V16.956C157.681 16.5923 157.585 16.3196 157.391 16.1378C157.198 15.956 156.957 15.8651 156.667 15.8651C156.338 15.8651 156.08 15.9702 155.896 16.1804C155.711 16.3878 155.619 16.6619 155.619 17.0028V21H153.859V16.9176C153.859 16.5966 153.766 16.3409 153.582 16.1506C153.4 15.9602 153.16 15.8651 152.862 15.8651C152.66 15.8651 152.478 15.9162 152.316 16.0185C152.157 16.1179 152.031 16.2585 151.937 16.4403C151.843 16.6193 151.796 16.8296 151.796 17.071V21H149.981Z" fill="#9DBBAE"/>
<path d="M145.819 21.1278C145.157 21.1278 144.585 20.9872 144.102 20.706C143.622 20.4219 143.251 20.027 142.989 19.5213C142.728 19.0128 142.597 18.4233 142.597 17.7528C142.597 17.0767 142.728 16.4858 142.989 15.9801C143.251 15.4716 143.622 15.0767 144.102 14.7955C144.585 14.5114 145.157 14.3693 145.819 14.3693C146.481 14.3693 147.052 14.5114 147.532 14.7955C148.015 15.0767 148.387 15.4716 148.649 15.9801C148.91 16.4858 149.041 17.0767 149.041 17.7528C149.041 18.4233 148.91 19.0128 148.649 19.5213C148.387 20.027 148.015 20.4219 147.532 20.706C147.052 20.9872 146.481 21.1278 145.819 21.1278ZM145.828 19.7216C146.129 19.7216 146.38 19.6364 146.582 19.4659C146.783 19.2926 146.935 19.0568 147.038 18.7585C147.143 18.4602 147.195 18.1207 147.195 17.7401C147.195 17.3594 147.143 17.0199 147.038 16.7216C146.935 16.4233 146.783 16.1875 146.582 16.0142C146.38 15.8409 146.129 15.7543 145.828 15.7543C145.524 15.7543 145.268 15.8409 145.06 16.0142C144.856 16.1875 144.701 16.4233 144.596 16.7216C144.494 17.0199 144.443 17.3594 144.443 17.7401C144.443 18.1207 144.494 18.4602 144.596 18.7585C144.701 19.0568 144.856 19.2926 145.06 19.4659C145.268 19.6364 145.524 19.7216 145.828 19.7216Z" fill="#9DBBAE"/>
<path d="M139.016 21.1278C138.346 21.1278 137.769 20.9858 137.286 20.7017C136.806 20.4148 136.436 20.0171 136.178 19.5085C135.922 19 135.794 18.4148 135.794 17.7528C135.794 17.0824 135.924 16.4943 136.182 15.9886C136.444 15.4801 136.814 15.0838 137.294 14.7997C137.775 14.5128 138.346 14.3693 139.008 14.3693C139.579 14.3693 140.079 14.473 140.508 14.6804C140.936 14.8878 141.276 15.179 141.526 15.554C141.776 15.929 141.914 16.3693 141.939 16.875H140.226C140.178 16.5483 140.05 16.2855 139.843 16.0867C139.638 15.8849 139.37 15.7841 139.037 15.7841C138.756 15.7841 138.51 15.8608 138.3 16.0142C138.093 16.1648 137.931 16.3849 137.814 16.6747C137.698 16.9645 137.64 17.3153 137.64 17.7273C137.64 18.1449 137.696 18.5 137.81 18.7926C137.927 19.0852 138.09 19.3082 138.3 19.4617C138.51 19.6151 138.756 19.6918 139.037 19.6918C139.245 19.6918 139.431 19.6492 139.596 19.5639C139.763 19.4787 139.901 19.3551 140.009 19.1932C140.12 19.0284 140.192 18.831 140.226 18.6009H141.939C141.911 19.1009 141.775 19.5412 141.53 19.9219C141.289 20.2997 140.955 20.5952 140.529 20.8082C140.103 21.0213 139.598 21.1278 139.016 21.1278Z" fill="#9DBBAE"/>
<path d="M133.786 21.1108C133.504 21.1108 133.263 21.0114 133.061 20.8125C132.862 20.6108 132.763 20.3693 132.763 20.0881C132.763 19.8097 132.862 19.571 133.061 19.3722C133.263 19.1733 133.504 19.0739 133.786 19.0739C134.058 19.0739 134.297 19.1733 134.501 19.3722C134.706 19.571 134.808 19.8097 134.808 20.0881C134.808 20.2756 134.76 20.4474 134.663 20.6037C134.57 20.7571 134.446 20.8807 134.293 20.9744C134.139 21.0653 133.97 21.1108 133.786 21.1108Z" fill="#9DBBAE"/>
<path d="M123.507 21.2131C122.513 21.2131 121.612 20.9574 120.805 20.446C120.004 19.929 119.368 19.1705 118.896 18.1705C118.43 17.1648 118.197 15.9318 118.197 14.4716C118.197 12.9716 118.439 11.7244 118.922 10.7301C119.405 9.73012 120.047 8.98296 120.848 8.48864C121.655 7.98864 122.538 7.73864 123.499 7.73864C124.232 7.73864 124.842 7.86364 125.331 8.11364C125.825 8.35796 126.223 8.66477 126.524 9.03409C126.831 9.39773 127.064 9.75568 127.223 10.108H127.334V3.54546H130.956V21H127.376V18.9034H127.223C127.053 19.267 126.811 19.6278 126.499 19.9858C126.192 20.3381 125.791 20.6307 125.297 20.8636C124.808 21.0966 124.212 21.2131 123.507 21.2131ZM124.658 18.3239C125.243 18.3239 125.737 18.1648 126.141 17.8466C126.55 17.5227 126.862 17.071 127.078 16.4915C127.3 15.9119 127.411 15.233 127.411 14.4545C127.411 13.6761 127.303 13 127.087 12.4261C126.871 11.8523 126.558 11.4091 126.149 11.0966C125.74 10.7841 125.243 10.6278 124.658 10.6278C124.061 10.6278 123.558 10.7898 123.149 11.1136C122.74 11.4375 122.43 11.8864 122.22 12.4602C122.01 13.0341 121.905 13.6989 121.905 14.4545C121.905 15.2159 122.01 15.8892 122.22 16.4744C122.436 17.054 122.746 17.5085 123.149 17.8381C123.558 18.1619 124.061 18.3239 124.658 18.3239Z" fill="#2F3E46"/>
<path d="M110.305 21.2557C108.959 21.2557 107.8 20.983 106.828 20.4375C105.862 19.8864 105.118 19.108 104.595 18.1023C104.072 17.0909 103.811 15.8949 103.811 14.5142C103.811 13.1676 104.072 11.9858 104.595 10.9687C105.118 9.9517 105.854 9.15909 106.803 8.5909C107.757 8.02272 108.876 7.73863 110.161 7.73863C111.024 7.73863 111.828 7.87784 112.572 8.15625C113.322 8.42897 113.976 8.8409 114.533 9.39204C115.095 9.94318 115.533 10.6364 115.845 11.4716C116.158 12.3011 116.314 13.2727 116.314 14.3864V15.3835H105.26V13.1335H112.896C112.896 12.6108 112.783 12.1477 112.555 11.7443C112.328 11.3409 112.013 11.0256 111.609 10.7983C111.212 10.5653 110.749 10.4489 110.22 10.4489C109.669 10.4489 109.18 10.5767 108.754 10.8324C108.334 11.0824 108.004 11.4204 107.766 11.8466C107.527 12.267 107.405 12.7358 107.399 13.2528V15.392C107.399 16.0398 107.518 16.5994 107.757 17.071C108.001 17.5426 108.345 17.9062 108.788 18.1619C109.232 18.4176 109.757 18.5455 110.365 18.5455C110.768 18.5455 111.138 18.4886 111.473 18.375C111.808 18.2614 112.095 18.0909 112.334 17.8636C112.572 17.6364 112.754 17.358 112.879 17.0284L116.237 17.25C116.067 18.0568 115.717 18.7614 115.189 19.3636C114.666 19.9602 113.99 20.4261 113.161 20.7614C112.337 21.0909 111.385 21.2557 110.305 21.2557Z" fill="#2F3E46"/>
<path d="M92.9936 13.4318V21H89.3629V3.54546H92.8913V10.2188H93.0447C93.3402 9.44602 93.8175 8.84091 94.4766 8.40341C95.1357 7.96023 95.9624 7.73864 96.9567 7.73864C97.8658 7.73864 98.6584 7.9375 99.3345 8.33523C100.016 8.72727 100.545 9.29261 100.92 10.0313C101.3 10.7642 101.488 11.642 101.482 12.6648V21H97.8516V13.3125C97.8572 12.5057 97.6527 11.8778 97.2379 11.429C96.8288 10.9801 96.255 10.7557 95.5163 10.7557C95.022 10.7557 94.5845 10.8608 94.2038 11.071C93.8288 11.2813 93.5334 11.5881 93.3175 11.9915C93.1072 12.3892 92.9993 12.8693 92.9936 13.4318Z" fill="#2F3E46"/>
<path d="M86.7784 11.642L83.4545 11.8466C83.3977 11.5625 83.2756 11.3068 83.0881 11.0795C82.9006 10.8466 82.6534 10.6619 82.3466 10.5256C82.0455 10.3835 81.6847 10.3125 81.2642 10.3125C80.7017 10.3125 80.2273 10.4318 79.8409 10.6705C79.4546 10.9034 79.2614 11.2159 79.2614 11.608C79.2614 11.9205 79.3864 12.1847 79.6364 12.4006C79.8864 12.6165 80.3153 12.7898 80.9233 12.9205L83.2926 13.3977C84.5653 13.6591 85.5142 14.0795 86.1392 14.6591C86.7642 15.2386 87.0767 16 87.0767 16.9432C87.0767 17.8011 86.8239 18.554 86.3182 19.2017C85.8182 19.8494 85.1307 20.3551 84.2557 20.7187C83.3864 21.0767 82.3835 21.2557 81.2472 21.2557C79.5142 21.2557 78.1335 20.8949 77.1051 20.1733C76.0824 19.446 75.483 18.4574 75.3068 17.2074L78.8778 17.0199C78.9858 17.5483 79.2472 17.9517 79.6619 18.2301C80.0767 18.5028 80.608 18.6392 81.2557 18.6392C81.8921 18.6392 82.4034 18.517 82.7898 18.2727C83.1818 18.0227 83.3807 17.7017 83.3864 17.3097C83.3807 16.9801 83.2415 16.7102 82.9688 16.5C82.696 16.2841 82.2756 16.1193 81.7074 16.0057L79.4403 15.554C78.1619 15.2983 77.2102 14.8551 76.5852 14.2244C75.9659 13.5937 75.6563 12.7898 75.6563 11.8125C75.6563 10.9716 75.8835 10.2472 76.3381 9.6392C76.7983 9.03125 77.4432 8.5625 78.2727 8.23295C79.108 7.90341 80.0852 7.73863 81.2045 7.73863C82.858 7.73863 84.1591 8.08806 85.108 8.78693C86.0625 9.48579 86.6193 10.4375 86.7784 11.642Z" fill="#2F3E46"/>
<path d="M69.3473 21V7.90909H72.978V21H69.3473ZM71.1712 6.22159C70.6314 6.22159 70.1683 6.04261 69.782 5.68466C69.4013 5.32102 69.2109 4.88636 69.2109 4.38068C69.2109 3.88068 69.4013 3.4517 69.782 3.09375C70.1683 2.73011 70.6314 2.54829 71.1712 2.54829C71.7109 2.54829 72.1712 2.73011 72.5518 3.09375C72.9382 3.4517 73.1314 3.88068 73.1314 4.38068C73.1314 4.88636 72.9382 5.32102 72.5518 5.68466C72.1712 6.04261 71.7109 6.22159 71.1712 6.22159Z" fill="#2F3E46"/>
<path d="M58.0483 13.4318V21H54.4176V7.90909H57.8778V10.2187H58.0313C58.321 9.45738 58.8068 8.85511 59.4886 8.41193C60.1705 7.96306 60.9972 7.73863 61.9688 7.73863C62.8778 7.73863 63.6705 7.9375 64.3466 8.33522C65.0227 8.73295 65.5483 9.30113 65.9233 10.0398C66.2983 10.7727 66.4858 11.6477 66.4858 12.6648V21H62.8551V13.3125C62.8608 12.5114 62.6563 11.8864 62.2415 11.4375C61.8267 10.983 61.2557 10.7557 60.5284 10.7557C60.0398 10.7557 59.608 10.8608 59.233 11.071C58.8636 11.2812 58.5739 11.5881 58.3636 11.9915C58.1591 12.3892 58.054 12.8693 58.0483 13.4318Z" fill="#2F3E46"/>
<path d="M44.5973 21V7.90909H48.1172V10.1932H48.2536C48.4922 9.38068 48.8928 8.76704 49.4553 8.35227C50.0178 7.93182 50.6655 7.72159 51.3984 7.72159C51.5803 7.72159 51.7763 7.73295 51.9865 7.75568C52.1967 7.77841 52.3814 7.80966 52.5405 7.84943V11.071C52.37 11.0199 52.1342 10.9744 51.8331 10.9347C51.532 10.8949 51.2564 10.875 51.0064 10.875C50.4723 10.875 49.995 10.9915 49.5746 11.2244C49.1598 11.4517 48.8303 11.7699 48.5859 12.179C48.3473 12.5881 48.228 13.0597 48.228 13.5937V21H44.5973Z" fill="#2F3E46"/>
<path d="M38.0625 15.4261V7.90909H41.6932V21H38.2074V18.6222H38.071C37.7756 19.3892 37.2841 20.0057 36.5966 20.4716C35.9148 20.9375 35.0824 21.1705 34.0994 21.1705C33.2244 21.1705 32.4545 20.9716 31.7898 20.5739C31.125 20.1761 30.6051 19.6108 30.2301 18.8778C29.8608 18.1449 29.6733 17.267 29.6676 16.2443V7.90909H33.2983V15.5966C33.304 16.3693 33.5114 16.9801 33.9205 17.429C34.3295 17.8778 34.8778 18.1023 35.5653 18.1023C36.0028 18.1023 36.4119 18.0028 36.7926 17.804C37.1733 17.5994 37.4801 17.2983 37.7131 16.9006C37.9517 16.5028 38.0682 16.0114 38.0625 15.4261Z" fill="#2F3E46"/>
<path d="M16.517 21V3.54546H28.0739V6.58807H20.2074V10.7472H27.3068V13.7898H20.2074V21H16.517Z" fill="#2F3E46"/>
<path d="M14.502 5.32103L12.8401 5.4233C12.8117 5.28126 12.7506 5.15341 12.6568 5.03978C12.5631 4.9233 12.4395 4.83097 12.2861 4.76279C12.1355 4.69177 11.9551 4.65626 11.7449 4.65626C11.4637 4.65626 11.2264 4.71591 11.0333 4.83523C10.8401 4.95171 10.7435 5.10796 10.7435 5.30398C10.7435 5.46023 10.806 5.59233 10.931 5.70029C11.056 5.80824 11.2705 5.89489 11.5745 5.96023L12.7591 6.19887C13.3955 6.32955 13.8699 6.53978 14.1824 6.82955C14.4949 7.11932 14.6512 7.50001 14.6512 7.9716C14.6512 8.40057 14.5247 8.77699 14.2719 9.10086C14.0219 9.42472 13.6782 9.67756 13.2407 9.85938C12.806 10.0384 12.3046 10.1278 11.7364 10.1278C10.8699 10.1278 10.1796 9.94745 9.66537 9.58665C9.15401 9.22302 8.85429 8.7287 8.76622 8.1037L10.5517 8.00995C10.6057 8.27415 10.7364 8.47586 10.9438 8.61506C11.1512 8.75143 11.4168 8.81961 11.7407 8.81961C12.0588 8.81961 12.3145 8.75853 12.5077 8.63637C12.7037 8.51137 12.8032 8.35086 12.806 8.15484C12.8032 7.99006 12.7336 7.85512 12.5972 7.75001C12.4608 7.64205 12.2506 7.55966 11.9665 7.50285L10.833 7.27699C10.1938 7.14915 9.71793 6.92756 9.40543 6.61222C9.09577 6.29688 8.94094 5.89489 8.94094 5.40626C8.94094 4.9858 9.05457 4.62358 9.28185 4.31961C9.51196 4.01563 9.8344 3.78126 10.2492 3.61648C10.6668 3.45171 11.1554 3.36932 11.7151 3.36932C12.5418 3.36932 13.1924 3.54404 13.6668 3.89347C14.1441 4.2429 14.4225 4.71876 14.502 5.32103Z" fill="#2F3E46"/>
<path d="M7.7155 3.45455V4.81819H3.77374V3.45455H7.7155ZM4.66862 1.88637H6.48396V7.98864C6.48396 8.15625 6.50953 8.28694 6.56067 8.38069C6.6118 8.4716 6.68283 8.53552 6.77374 8.57245C6.86749 8.60938 6.97544 8.62785 7.0976 8.62785C7.18283 8.62785 7.26805 8.62074 7.35328 8.60654C7.43851 8.58949 7.50385 8.57671 7.5493 8.56819L7.83482 9.91904C7.74391 9.94745 7.61607 9.98012 7.45129 10.017C7.28652 10.0568 7.08624 10.081 6.85044 10.0895C6.41294 10.1065 6.02942 10.0483 5.69987 9.91478C5.37317 9.78126 5.11891 9.57387 4.93709 9.29262C4.75527 9.01137 4.66578 8.65625 4.66862 8.22728V1.88637Z" fill="#2F3E46"/>
<path d="M0.724432 10V3.45455H2.53977V10H0.724432ZM1.63636 2.6108C1.36648 2.6108 1.13494 2.52131 0.941761 2.34234C0.75142 2.16052 0.65625 1.94319 0.65625 1.69035C0.65625 1.44035 0.75142 1.22586 0.941761 1.04688C1.13494 0.865064 1.36648 0.774155 1.63636 0.774155C1.90625 0.774155 2.13636 0.865064 2.3267 1.04688C2.51989 1.22586 2.61648 1.44035 2.61648 1.69035C2.61648 1.94319 2.51989 2.16052 2.3267 2.34234C2.13636 2.52131 1.90625 2.6108 1.63636 2.6108Z" fill="#2F3E46"/>
</svg>
